<svg width="15" height="12" viewBox="0 0 15 12" fill="none" xmlns="http://www.w3.org/2000/svg">
<path fill-rule="evenodd" clip-rule="evenodd" d="M1.03117 5.16592C5.0577 3.47245 7.74268 2.356 9.08611 1.81659C12.9219 0.276465 13.7189 0.00892805 14.2384 9.42258e-05C14.3527 -0.00184913 14.6082 0.0254865 14.7737 0.155112C14.9134 0.264565 14.9518 0.412422 14.9702 0.516195C14.9886 0.619969 15.0115 0.856369 14.9933 1.04108C14.7855 3.1494 13.8861 8.26573 13.4285 10.6271C13.2349 11.6262 12.8536 11.9613 12.4845 11.9941C11.6825 12.0653 11.0734 11.4823 10.2965 10.9908C9.08085 10.2215 8.39409 9.74265 7.21409 8.992C5.8504 8.1245 6.73442 7.64771 7.51159 6.86849C7.71498 6.66457 11.249 3.56151 11.3174 3.28001C11.326 3.2448 11.3339 3.11357 11.2532 3.04428C11.1724 2.97498 11.0532 2.99868 10.9672 3.01753C10.8453 3.04424 8.90325 4.28334 5.14115 6.73483C4.58991 7.10023 4.09062 7.27827 3.64327 7.26893C3.15011 7.25865 2.20146 6.99976 1.49623 6.77846C0.631245 6.50704 -0.0562299 6.36353 0.00363391 5.90257C0.0348149 5.66247 0.377328 5.41692 1.03117 5.16592Z" fill="#535458"/>
</svg>
