<svg width="20" height="20" viewBox="0 0 20 20" fill="none" xmlns="http://www.w3.org/2000/svg">
<path d="M7.85742 7.6001C7.85742 8.7049 8.81656 9.6001 10.0003 9.6001C11.184 9.6001 12.1431 8.7049 12.1431 7.6001C12.1431 6.4953 11.184 5.6001 10.0003 5.6001C8.81656 5.6001 7.85742 6.4953 7.85742 7.6001Z" fill="#1E94D6" fill-opacity="0.5" stroke="#28292E" stroke-linecap="round" stroke-linejoin="round"/>
<path fill-rule="evenodd" clip-rule="evenodd" d="M3.5 7.6C3.5 4.19913 6.44319 1.5 10 1.5C13.5568 1.5 16.5 4.19913 16.5 7.6C16.5 8.71144 16.0875 9.94219 15.5126 11.1303C14.9333 12.3274 14.166 13.5278 13.4069 14.5906C12.6465 15.6551 11.8873 16.5914 11.3186 17.2611C11.0341 17.5963 10.7967 17.8654 10.6299 18.0511C10.5466 18.1441 10.4808 18.2162 10.4356 18.2654L10.3837 18.3217L10.37 18.3364L10.3653 18.3415C10.3652 18.3416 10.3648 18.342 10 18C9.63523 18.342 9.63516 18.3419 9.63506 18.3418L9.63004 18.3364L9.61631 18.3217L9.56435 18.2654C9.51919 18.2162 9.45345 18.1441 9.37007 18.0511C9.20333 17.8654 8.96592 17.5963 8.68135 17.2611C8.11269 16.5914 7.35347 15.6551 6.59313 14.5906C5.83395 13.5278 5.06669 12.3274 4.48742 11.1303C3.91254 9.94219 3.5 8.71144 3.5 7.6ZM10 18L9.63506 18.3418C9.72958 18.4426 9.8618 18.5 10 18.5C10.1382 18.5 10.2707 18.4423 10.3653 18.3415L10 18ZM10 17.2552C10.1493 17.0869 10.3385 16.8704 10.5564 16.6139C11.1127 15.9586 11.8535 15.0449 12.5931 14.0094C13.334 12.9722 14.0667 11.8226 14.6124 10.6947C15.1625 9.55781 15.5 8.48856 15.5 7.6C15.5 4.81527 13.0706 2.5 10 2.5C6.92938 2.5 4.5 4.81527 4.5 7.6C4.5 8.48856 4.83746 9.55781 5.38758 10.6947C5.93331 11.8226 6.66605 12.9722 7.40687 14.0094C8.14653 15.0449 8.88731 15.9586 9.44365 16.6139C9.66147 16.8704 9.85066 17.0869 10 17.2552ZM10 6.1C9.05938 6.1 8.35714 6.80327 8.35714 7.6C8.35714 8.39673 9.05938 9.1 10 9.1C10.9406 9.1 11.6429 8.39673 11.6429 7.6C11.6429 6.80327 10.9406 6.1 10 6.1ZM7.35714 7.6C7.35714 6.18713 8.57319 5.1 10 5.1C11.4268 5.1 12.6429 6.18713 12.6429 7.6C12.6429 9.01287 11.4268 10.1 10 10.1C8.57319 10.1 7.35714 9.01287 7.35714 7.6Z" fill="#28292E"/>
</svg>
